<svg width="36" height="36" viewBox="0 0 36 36" fill="none" xmlns="http://www.w3.org/2000/svg">
<path d="M18 36C27.9411 36 36 27.9411 36 18C36 8.05887 27.9411 0 18 0C8.05887 0 0 8.05887 0 18C0 27.9411 8.05887 36 18 36Z" fill="#ED1C24"/>
<path d="M6.00098 11C5.44898 11 5.00098 10.552 5.00098 10C5.00098 9.449 5.44598 9.002 5.99698 9C6.15298 8.998 9.56598 8.914 12.202 5.4C12.533 4.96 13.159 4.868 13.602 5.2C14.044 5.531 14.133 6.158 13.802 6.6C10.539 10.95 6.18498 11 6.00098 11ZM30.987 13.393C31.115 13.93 30.783 14.47 30.246 14.598C29.71 14.726 29.172 14.396 29.042 13.861C29.004 13.71 28.131 10.409 24.101 8.66C23.596 8.44 23.362 7.852 23.582 7.345C23.802 6.838 24.391 6.606 24.897 6.826C29.886 8.991 30.944 13.214 30.987 13.393Z" fill="white"/>
<path d="M23.186 29.526C22.193 29.526 21.234 29.071 20.398 28.187C17.582 25.202 16.829 25.854 15.581 26.936C14.8 27.615 13.827 28.459 12.376 28.459C10.025 28.459 8.40698 26.157 8.33998 26.059C8.02598 25.605 8.13998 24.982 8.59398 24.668C9.04498 24.356 9.66798 24.468 9.98398 24.919C10.285 25.348 11.301 26.459 12.377 26.459C13.081 26.459 13.633 25.98 14.272 25.426C16.088 23.848 18.036 22.771 21.855 26.814C22.678 27.687 23.307 27.588 23.763 27.406C25.422 26.741 26.968 23.708 26.96 22.256C26.957 21.704 27.402 21.254 27.954 21.251H27.96C28.51 21.251 28.957 21.695 28.96 22.246C28.972 24.349 27.106 28.222 24.506 29.263C24.063 29.438 23.621 29.525 23.186 29.526Z" fill="white"/>
<path d="M14.8148 15.375C14.2308 17.489 13.1728 18.458 11.6628 18.041C10.1538 17.624 9.31977 16.132 9.90277 14.018C10.4858 11.906 12.0778 10.655 13.5868 11.072C15.0978 11.489 15.3988 13.262 14.8148 15.375ZM26.2308 14.62C26.7038 16.761 25.5558 19.458 24.0268 19.796C22.4978 20.134 20.7468 18.077 20.2738 15.936C19.8008 13.796 20.6928 11.965 22.2218 11.627C23.7508 11.289 25.7578 12.48 26.2308 14.62Z" fill="white"/>
</svg>
