<svg width="57" height="47" viewBox="0 0 57 47" fill="none" xmlns="http://www.w3.org/2000/svg">
<path d="M28.5 0C19.941 0 13 6.93809 13 15.5C13 24.0619 19.9381 31 28.5 31C37.0619 31 44 24.0619 44 15.5C44 6.93809 37.059 0 28.5 0ZM17.8454 24.25C17.747 24.3137 17.637 24.3427 17.5299 24.3427C17.3388 24.3427 17.1536 24.25 17.0436 24.0793C16.8699 23.8101 16.9452 23.4512 17.2144 23.2775C22.0192 20.1572 25.0845 15.0803 27.5824 10.5649C27.6664 10.4144 27.7532 10.2552 27.8458 10.0873C29.3018 7.43016 31.4987 3.41261 34.2687 3.32288C35.5683 3.28235 36.7667 4.11307 37.8405 5.80056C38.0113 6.06975 37.9331 6.42867 37.664 6.60234C37.3948 6.77311 37.0359 6.69496 36.8622 6.42577C36.0257 5.10878 35.166 4.45462 34.3092 4.48357C32.2021 4.55304 30.0312 8.5156 28.8676 10.6459C28.775 10.8138 28.6881 10.9759 28.6042 11.1264C26.031 15.7634 22.876 20.9851 17.8454 24.25ZM28.0108 13.7402C27.7851 13.5144 27.7851 13.1468 28.0108 12.921C28.2366 12.6952 28.6042 12.6952 28.83 12.921L32.8938 16.9849L25.646 20.3541C25.5679 20.3917 25.4839 20.4091 25.4029 20.4091C25.1829 20.4091 24.9745 20.2846 24.8761 20.0733C24.7401 19.7838 24.8674 19.4394 25.1569 19.3034L30.9024 16.6346L28.0108 13.7402ZM34.7955 16.4552C33.5075 19.2136 30.6506 22.8173 24.358 24.3282C24.3117 24.3398 24.2683 24.3456 24.2219 24.3456C23.9614 24.3456 23.7212 24.1661 23.6575 23.8998C23.5823 23.5872 23.7733 23.2746 24.0859 23.1993C28.7779 22.0734 32.0255 19.6362 33.7448 15.9631C35.0242 13.2278 34.9316 10.8196 34.9287 10.7965C34.9142 10.4752 35.1631 10.206 35.4815 10.1915C35.8028 10.1828 36.072 10.426 36.0865 10.7444C36.0922 10.8543 36.1936 13.4652 34.7955 16.4552ZM41.0447 9.71102C40.9608 9.77759 40.8595 9.80943 40.7582 9.80943C40.6221 9.80943 40.4832 9.74865 40.3935 9.63287C40.3443 9.56919 40.2922 9.5084 40.24 9.45051L35.331 9.32316C35.0821 9.31737 34.8881 9.10318 34.8939 8.84846C34.8997 8.59664 35.0994 8.39692 35.3426 8.39692C35.3455 8.39692 35.3513 8.39692 35.3541 8.39692L39.1257 8.49533C37.4555 7.47936 35.7391 7.99169 35.6494 8.02063C35.4063 8.09589 35.1457 7.96275 35.0676 7.71671C34.9894 7.47358 35.1255 7.21307 35.3686 7.13492C35.4034 7.12334 38.7841 6.08712 41.1229 9.06265C41.2821 9.26237 41.2473 9.55182 41.0447 9.71102Z" fill="white"/>
<path d="M0 46.2931V37.4031H7.16606C7.8347 37.4031 8.31438 37.5397 8.608 37.8101C8.90162 38.0833 9.04988 38.5194 9.04988 39.127V41.1126C9.04988 41.7114 8.90162 42.1475 8.608 42.4208C8.31438 42.694 7.8318 42.8278 7.16606 42.8278H5.86367L9.92493 46.2931H7.72132L4.10486 42.8278H1.48845V46.2931H0ZM6.58464 38.5543H1.48845V41.6736H6.58464C6.95384 41.6736 7.20676 41.6068 7.34049 41.4731C7.47422 41.3393 7.54108 41.1038 7.54108 40.7666V39.47C7.54108 39.1328 7.47131 38.8973 7.33468 38.7607C7.19804 38.6241 6.94803 38.5543 6.58464 38.5543Z" fill="white"/>
<path d="M20.751 44.6389L21.6697 46.2931H23.4924L18.2305 37.4031H16.6927L11.5529 46.2931H13.2303L14.367 44.2145H14.3699L15.0763 42.9324L15.21 42.6911L15.2129 42.6882L15.21 42.6911L17.4311 38.7026L19.594 42.569L19.5882 42.5603L19.594 42.569L19.7975 42.9324L20.5126 44.2145L20.751 44.6389Z" fill="white"/>
<path d="M27.6206 46.2931L22.4982 37.4031H24.3006L28.2834 44.5517L32.1034 37.4031H33.7633L28.8997 46.2931H27.6206Z" fill="white"/>
<path d="M42.3481 41.0079H37.9641V42.3277H42.3481V41.0079Z" fill="white"/>
<path d="M37.092 44.9907V43.0516V42.3277V41.0079V40.4178V38.7229H44.3627V37.4031H35.4117V46.2931H44.4441V44.9907H37.092Z" fill="white"/>
<path d="M48.1507 39.1851C48.1914 39.4439 48.2234 39.7084 48.2437 39.973C48.2641 40.2404 48.2757 40.505 48.2757 40.7724V46.2931H46.7291V37.4031H48.0083L54.5319 43.2115C54.7237 43.3743 54.9069 43.5575 55.0784 43.7551C55.2528 43.9528 55.4243 44.1796 55.5959 44.4325C55.5493 44.1651 55.5115 43.8976 55.4883 43.6243C55.465 43.3511 55.4534 43.0691 55.4534 42.7754V37.4089H57V46.2989H55.8517L49.1944 40.409C48.9618 40.191 48.7612 39.9846 48.5955 39.7898C48.4269 39.5892 48.2786 39.3886 48.1507 39.1851Z" fill="white"/>
</svg>
