<svg width="36" height="22" viewBox="0 0 36 22" fill="none" xmlns="http://www.w3.org/2000/svg">
<path fill-rule="evenodd" clip-rule="evenodd" d="M17.9755 19.3723C16.0716 21.0108 13.6019 22 10.9032 22C4.88155 22 0 17.0751 0 11C0 4.92487 4.88155 0 10.9032 0C13.6019 0 16.0716 0.989154 17.9755 2.6277C19.8795 0.989154 22.3492 0 25.0479 0C31.0695 0 35.9511 4.92487 35.9511 11C35.9511 17.0751 31.0695 22 25.0479 22C22.3492 22 19.8795 21.0108 17.9755 19.3723Z" fill="#FF5E00"/>
<path fill-rule="evenodd" clip-rule="evenodd" d="M17.9755 19.3723C16.0716 21.0108 13.6019 22 10.9032 22C4.88155 22 0 17.0751 0 11C0 4.92487 4.88155 0 10.9032 0C13.6019 0 16.0716 0.989154 17.9755 2.6277C15.6312 4.6453 14.1446 7.64751 14.1446 11C14.1446 14.3525 15.6312 17.3547 17.9755 19.3723Z" fill="#ED0006"/>
<path fill-rule="evenodd" clip-rule="evenodd" d="M17.9756 19.3723C19.8795 21.0108 22.3492 22 25.0479 22C31.0696 22 35.9511 17.0751 35.9511 11C35.9511 4.92487 31.0696 0 25.0479 0C22.3492 0 19.8795 0.989154 17.9756 2.6277C20.32 4.6453 21.8065 7.64751 21.8065 11C21.8065 14.3525 20.32 17.3547 17.9756 19.3723Z" fill="#F9A000"/>
</svg>
