<svg width="23" height="23" viewBox="0 0 23 23" fill="none" xmlns="http://www.w3.org/2000/svg">
<path d="M11.0971 0C4.96936 0 0 4.96729 0 11.0971C0 17.227 4.96729 22.1943 11.0971 22.1943C17.227 22.1943 22.1943 17.227 22.1943 11.0971C22.1943 4.96729 17.2249 0 11.0971 0ZM3.46902 17.3617C3.39856 17.4073 3.31981 17.428 3.24314 17.428C3.10637 17.428 2.97374 17.3617 2.895 17.2394C2.77066 17.0467 2.82454 16.7897 3.01726 16.6654C6.45727 14.4315 8.65183 10.7967 10.4402 7.56388C10.5003 7.45612 10.5625 7.34214 10.6288 7.22195C11.6712 5.31958 13.244 2.44324 15.2272 2.37899C16.1577 2.34998 17.0156 2.94473 17.7844 4.15288C17.9067 4.3456 17.8507 4.60257 17.658 4.7269C17.4653 4.84917 17.2083 4.79322 17.084 4.60049C16.4851 3.6576 15.8696 3.18926 15.2562 3.20999C13.7476 3.25972 12.1934 6.09669 11.3603 7.6219C11.294 7.74209 11.2318 7.85814 11.1717 7.9659C9.32947 11.2857 7.07067 15.0241 3.46902 17.3617ZM10.7469 9.83718C10.5853 9.67554 10.5853 9.41236 10.7469 9.25072C10.9086 9.08908 11.1717 9.08908 11.3334 9.25072L14.2429 12.1602L9.05385 14.5724C8.9979 14.5993 8.93781 14.6117 8.87978 14.6117C8.72229 14.6117 8.57308 14.5226 8.50262 14.3714C8.40523 14.1641 8.49641 13.9175 8.70364 13.8201L12.8171 11.9095L10.7469 9.83718ZM15.6044 11.781C14.6822 13.7559 12.6368 16.3359 8.13168 17.4176C8.09853 17.4259 8.06744 17.4301 8.03428 17.4301C7.84778 17.4301 7.67578 17.3016 7.63019 17.1109C7.57631 16.8871 7.71308 16.6633 7.93689 16.6094C11.2961 15.8033 13.6212 14.0584 14.8521 11.4287C15.7681 9.47039 15.7018 7.74624 15.6997 7.72966C15.6893 7.49963 15.8676 7.30691 16.0955 7.29655C16.3255 7.29033 16.5183 7.46441 16.5286 7.69236C16.5328 7.7711 16.6053 9.64031 15.6044 11.781ZM20.0785 6.95255C20.0184 7.00021 19.9458 7.02301 19.8733 7.02301C19.7759 7.02301 19.6764 6.97949 19.6122 6.8966C19.577 6.85101 19.5397 6.80749 19.5024 6.76604L15.9878 6.67486C15.8095 6.67072 15.6707 6.51737 15.6748 6.335C15.679 6.15471 15.822 6.01173 15.996 6.01173C15.9981 6.01173 16.0023 6.01173 16.0043 6.01173L18.7045 6.08218C17.5088 5.35481 16.2799 5.7216 16.2157 5.74233C16.0416 5.79621 15.8551 5.70088 15.7992 5.52474C15.7432 5.35066 15.8406 5.16416 16.0147 5.10821C16.0396 5.09992 18.46 4.35804 20.1344 6.48835C20.2484 6.63134 20.2235 6.83857 20.0785 6.95255Z" fill="url(#paint0_linear)"/>
<defs>
<linearGradient id="paint0_linear" x1="0.000248675" y1="11.0976" x2="22.1942" y2="11.0976" gradientUnits="userSpaceOnUse">
<stop stop-color="#9E005D"/>
<stop offset="0.4154" stop-color="#CF113A"/>
<stop offset="0.6564" stop-color="#ED1C24"/>
<stop offset="0.7336" stop-color="#ED1C28"/>
<stop offset="0.8072" stop-color="#ED1C33"/>
<stop offset="0.8793" stop-color="#ED1D47"/>
<stop offset="0.9501" stop-color="#ED1D61"/>
<stop offset="1" stop-color="#ED1E79"/>
</linearGradient>
</defs>
</svg>
