<svg width="73" height="73" viewBox="0 0 73 73" fill="none" xmlns="http://www.w3.org/2000/svg">
<path d="M36.4811 0C16.5157 0 0.324707 16.1843 0.324707 36.1564C0.324707 56.1285 16.509 72.3128 36.4811 72.3128C56.4532 72.3128 72.6375 56.1285 72.6375 36.1564C72.6375 16.1843 56.4464 0 36.4811 0ZM11.6274 56.5674C11.3978 56.7159 11.1412 56.7834 10.8914 56.7834C10.4458 56.7834 10.0137 56.5673 9.7571 56.169C9.35199 55.5411 9.52753 54.7038 10.1555 54.2987C21.3636 47.0202 28.5139 35.1774 34.3407 24.6444C34.5365 24.2933 34.7391 23.922 34.9551 23.5303C38.3513 17.3321 43.476 7.96048 49.9376 7.75117C52.9692 7.65665 55.7645 9.59444 58.2694 13.5308C58.6678 14.1587 58.4855 14.996 57.8576 15.4011C57.2296 15.7994 56.3924 15.6171 55.9873 14.9892C54.036 11.9171 52.0307 10.3912 50.0321 10.4587C45.1168 10.6207 40.0528 19.8641 37.3386 24.8335C37.1225 25.2251 36.92 25.6032 36.7242 25.9543C30.7217 36.7708 23.3622 48.9512 11.6274 56.5674ZM35.34 32.0512C34.8134 31.5246 34.8134 30.6671 35.34 30.1405C35.8667 29.6138 36.7242 29.6138 37.2508 30.1405L46.7304 39.6201L29.8237 47.4793C29.6414 47.5671 29.4456 47.6076 29.2566 47.6076C28.7434 47.6076 28.2573 47.3173 28.0277 46.8244C27.7104 46.1492 28.0075 45.3457 28.6827 45.0284L42.0852 38.8031L35.34 32.0512ZM51.1664 38.3845C48.1618 44.8191 41.4977 53.2252 26.8191 56.7496C26.7111 56.7767 26.6098 56.7902 26.5018 56.7902C25.8941 56.7902 25.3337 56.3715 25.1852 55.7504C25.0096 55.0212 25.4552 54.292 26.1844 54.1164C37.1293 51.4899 44.7049 45.8048 48.7155 37.2367C51.6998 30.8561 51.4838 25.2386 51.477 25.1846C51.4433 24.4351 52.0239 23.8072 52.7666 23.7734C53.5161 23.7532 54.144 24.3203 54.1778 25.063C54.1913 25.3196 54.4276 31.4098 51.1664 38.3845ZM65.7438 22.6526C65.548 22.8079 65.3117 22.8822 65.0753 22.8822C64.758 22.8822 64.4339 22.7404 64.2246 22.4703C64.1098 22.3218 63.9883 22.18 63.8667 22.0449L52.4155 21.7478C51.8349 21.7343 51.3825 21.2347 51.396 20.6405C51.4095 20.0531 51.8754 19.5872 52.4426 19.5872C52.4493 19.5872 52.4628 19.5872 52.4696 19.5872L61.2673 19.8168C57.3714 17.4469 53.3676 18.642 53.1583 18.7095C52.5911 18.885 51.9834 18.5745 51.8011 18.0005C51.6188 17.4334 51.9362 16.8257 52.5033 16.6434C52.5843 16.6164 60.4706 14.1992 65.9261 21.1402C66.2974 21.6061 66.2164 22.2812 65.7438 22.6526Z" fill="white"/>
</svg>
